<svg xmlns="http://www.w3.org/2000/svg" xmlns:xlink="http://www.w3.org/1999/xlink" width="50" height="50" viewBox="0 0 50 50">
  <defs>
    <clipPath id="clip-pfp">
      <rect width="50" height="50"/>
    </clipPath>
  </defs>
  <g id="pfp" clip-path="url(#clip-pfp)">
    <g id="Path_21" data-name="Path 21" transform="translate(-34.446 -1201.478)" fill="none">
      <path d="M59.446,1241.3a2.964,2.964,0,0,1-2.11-.874l-6.856-6.856a12.867,12.867,0,0,1,0-18.2,12.678,12.678,0,0,1,17.931,0,12.867,12.867,0,0,1,0,18.2l-6.856,6.856A2.964,2.964,0,0,1,59.446,1241.3Zm4.308-20.974a1.437,1.437,0,0,0-1.436,1.436v4.307a1.436,1.436,0,1,0,2.872,0v-4.307A1.437,1.437,0,0,0,63.754,1220.324Zm-8.616,0a1.437,1.437,0,0,0-1.436,1.436v4.307a1.436,1.436,0,1,0,2.872,0v-4.307A1.437,1.437,0,0,0,55.138,1220.324Z" stroke="none"/>
      <path d="M 59.44566345214844 1241.297607421875 C 60.24225234985352 1241.297607421875 60.99148178100586 1240.987182617188 61.55537414550781 1240.423217773438 L 68.4111328125 1233.5673828125 C 70.84121704101562 1231.137329101562 72.17953491210938 1227.90625 72.17953491210938 1224.469482421875 C 72.17953491210938 1221.032592773438 70.84121704101562 1217.801513671875 68.4111328125 1215.37158203125 C 66.01671600341797 1212.976440429688 62.83273315429688 1211.657470703125 59.44566345214844 1211.657470703125 C 56.05859375 1211.657470703125 52.87461471557617 1212.976440429688 50.48019409179688 1215.37158203125 C 48.05011367797852 1217.801513671875 46.7117919921875 1221.032592773438 46.7117919921875 1224.469482421875 C 46.7117919921875 1227.90625 48.05011367797852 1231.137329101562 50.48019409179688 1233.5673828125 L 57.33595275878906 1240.423217773438 C 57.89985275268555 1240.987182617188 58.64907455444336 1241.297607421875 59.44566345214844 1241.297607421875 M 63.75361251831055 1220.32373046875 C 64.54530334472656 1220.32373046875 65.18937683105469 1220.967895507812 65.18937683105469 1221.759521484375 L 65.18937683105469 1226.066650390625 C 65.18937683105469 1226.858520507812 64.54530334472656 1227.502685546875 63.75361251831055 1227.502685546875 C 62.96192169189453 1227.502685546875 62.31784439086914 1226.858520507812 62.31784439086914 1226.066650390625 L 62.31784439086914 1221.759521484375 C 62.31784439086914 1220.967895507812 62.96192169189453 1220.32373046875 63.75361251831055 1220.32373046875 M 55.13771438598633 1220.32373046875 C 55.92941284179688 1220.32373046875 56.57348251342773 1220.967895507812 56.57348251342773 1221.759521484375 L 56.57348251342773 1226.066650390625 C 56.57348251342773 1226.858520507812 55.92941284179688 1227.502685546875 55.13771438598633 1227.502685546875 C 54.34602355957031 1227.502685546875 53.70195388793945 1226.858520507812 53.70195388793945 1226.066650390625 L 53.70195388793945 1221.759521484375 C 53.70195388793945 1220.967895507812 54.34602355957031 1220.32373046875 55.13771438598633 1220.32373046875 M 59.44566345214844 1247.297607421875 C 57.04621505737305 1247.297607421875 54.79016494750977 1246.362915039062 53.09308242797852 1244.665649414062 L 46.23752212524414 1237.81005859375 C 42.67422485351562 1234.246704101562 40.7117919921875 1229.508911132812 40.7117919921875 1224.469482421875 C 40.7117919921875 1219.429809570312 42.67426300048828 1214.692016601562 46.2376823425293 1211.128784179688 C 49.76459503173828 1207.600830078125 54.4555549621582 1205.657470703125 59.44566345214844 1205.657470703125 C 64.43577575683594 1205.657470703125 69.12673187255859 1207.600830078125 72.65441131591797 1211.129638671875 C 76.21706390380859 1214.692016601562 78.17953491210938 1219.429809570312 78.17953491210938 1224.469482421875 C 78.17953491210938 1229.508911132812 76.21710205078125 1234.246704101562 72.65373992919922 1237.81005859375 L 65.79804229736328 1244.665893554688 C 64.10121154785156 1246.362915039062 61.84514236450195 1247.297607421875 59.44566345214844 1247.297607421875 Z" stroke="none" fill="#fff"/>
    </g>
  </g>
</svg>
